<?xml version="1.0" standalone="no"?>
<!DOCTYPE svg PUBLIC "-//W3C//DTD SVG 20010904//EN"
 "http://www.w3.org/TR/2001/REC-SVG-20010904/DTD/svg10.dtd">
<svg version="1.0" xmlns="http://www.w3.org/2000/svg"
 width="4168.000000pt" height="1144.000000pt" viewBox="0 0 4168.000000 1144.000000"
 preserveAspectRatio="xMidYMid meet">
<metadata>
Created by potrace 1.16, written by Peter Selinger 2001-2019
</metadata>
<g transform="translate(0.000000,1144.000000) scale(0.100000,-0.100000)"
fill="#172331" stroke="none">
<path d="M27110 11049 c-30 -4 -84 -11 -120 -14 -46 -5 -83 -17 -127 -41 -34
-19 -68 -34 -77 -34 -44 0 -253 -204 -310 -302 -15 -25 -33 -52 -41 -58 -8 -6
-21 -37 -30 -68 -9 -32 -28 -81 -42 -110 -53 -109 -47 -449 10 -558 9 -17 21
-53 28 -80 7 -27 29 -71 49 -99 21 -27 43 -61 50 -75 40 -77 172 -195 280
-250 24 -12 56 -31 70 -42 15 -10 64 -25 109 -33 46 -8 107 -22 135 -30 100
-30 169 -29 336 5 85 17 169 40 185 50 17 10 55 32 85 47 121 63 236 173 297
283 17 30 39 71 51 90 11 19 23 51 27 70 4 19 22 69 39 110 31 74 31 77 30
245 0 162 -1 173 -26 226 -15 31 -29 77 -33 103 -4 25 -18 61 -31 79 -13 17
-33 51 -44 75 -26 56 -151 193 -215 236 -27 19 -59 43 -69 55 -11 12 -24 21
-31 21 -6 0 -47 18 -91 39 -68 33 -97 41 -204 55 -133 17 -200 18 -290 5z"/>
<path d="M270 10932 c-17 -6 -40 -59 -40 -92 0 -37 24 -86 48 -99 10 -5 47
-12 82 -16 50 -5 91 -19 176 -61 93 -45 124 -67 184 -127 40 -40 82 -92 93
-117 11 -25 28 -56 38 -70 10 -14 34 -74 54 -133 48 -148 54 -260 57 -997 l3
-595 42 -70 c92 -154 250 -334 473 -540 76 -70 245 -202 310 -242 20 -12 47
-34 60 -49 14 -14 43 -35 65 -45 22 -11 54 -29 71 -42 61 -43 143 -93 306
-185 42 -24 81 -49 88 -57 6 -8 35 -22 63 -31 28 -9 71 -29 95 -45 24 -15 58
-31 76 -35 17 -3 63 -24 102 -45 39 -22 79 -39 90 -39 10 0 44 -16 74 -35 30
-19 61 -35 70 -35 26 0 108 -30 120 -44 18 -22 0 -45 -43 -57 -74 -20 -491 10
-637 46 -52 13 -128 26 -168 30 -40 3 -99 15 -130 27 -81 28 -160 54 -208 67
-23 6 -58 22 -78 36 -20 13 -62 32 -94 41 -31 9 -64 22 -72 29 -22 19 -97 55
-113 55 -8 0 -32 14 -53 31 -22 17 -54 37 -73 45 -19 8 -54 29 -78 47 -93 68
-210 163 -260 209 -54 50 -98 63 -110 32 -12 -33 15 -147 47 -190 16 -23 39
-62 49 -86 19 -42 148 -191 226 -260 73 -64 168 -138 179 -138 5 0 35 -20 65
-44 31 -24 67 -47 81 -51 14 -4 32 -13 40 -21 9 -7 42 -25 75 -39 33 -15 80
-37 105 -50 90 -47 231 -105 292 -120 35 -9 88 -28 118 -42 30 -15 89 -32 130
-39 42 -6 107 -24 144 -39 38 -15 102 -31 142 -36 94 -10 123 -15 279 -47 130
-26 132 -27 595 -27 330 0 485 4 535 13 39 6 106 19 151 27 45 8 137 21 206
29 69 9 154 25 189 37 35 11 107 29 159 39 113 23 146 32 186 53 17 9 62 23
100 32 38 9 87 27 110 40 23 14 67 31 97 39 29 8 79 28 109 45 30 17 61 31 70
31 8 0 51 18 96 40 44 22 85 40 90 40 5 0 37 18 70 40 33 22 66 40 75 40 8 0
42 18 75 40 33 22 66 40 74 40 8 0 44 19 80 43 36 23 79 50 94 60 16 9 54 35
84 57 72 52 184 129 226 156 19 11 44 30 56 42 13 11 46 38 74 59 57 42 225
172 283 218 41 33 132 118 284 265 78 76 100 103 107 135 6 23 10 424 10 930
0 495 5 922 10 962 5 40 17 88 27 105 9 18 20 57 24 86 5 36 19 70 43 105 20
29 36 59 36 67 0 42 200 240 242 240 10 0 49 15 86 34 46 24 87 36 132 41 126
12 160 36 160 108 0 51 -15 76 -53 91 -25 10 -338 12 -1476 11 l-1444 -2 -24
-27 c-42 -49 -42 -99 -2 -149 16 -21 29 -27 58 -27 64 0 141 -19 200 -48 31
-16 67 -32 81 -35 40 -10 170 -127 229 -206 35 -48 60 -95 76 -144 12 -39 31
-90 40 -112 14 -32 20 -84 26 -250 12 -332 11 -2538 -2 -2572 -21 -56 -45 -70
-148 -87 -53 -9 -145 -26 -206 -37 -227 -43 -672 -41 -960 6 -82 13 -179 27
-215 30 -36 4 -96 14 -135 24 -38 10 -115 28 -170 40 -55 12 -140 36 -190 53
-49 16 -119 38 -155 47 -36 10 -78 25 -95 33 -16 9 -64 26 -105 38 -41 12 -96
35 -121 51 -25 16 -55 29 -66 29 -26 0 -81 23 -113 47 -14 11 -47 27 -75 37
-27 10 -59 27 -71 37 -11 11 -49 30 -84 44 -35 14 -75 36 -89 49 -15 13 -40
31 -58 40 -42 21 -103 97 -114 143 -14 55 -23 1765 -10 1938 12 173 54 348
100 420 17 27 31 57 31 66 0 27 108 147 171 190 32 21 61 39 65 39 3 0 41 16
83 36 48 23 105 41 156 48 88 14 119 27 135 56 20 37 12 79 -24 117 l-34 37
-1451 1 c-798 0 -1456 -2 -1461 -3z"/>
<path d="M10780 8733 c-358 -15 -534 -34 -685 -72 -44 -11 -117 -25 -162 -30
-45 -6 -109 -22 -141 -35 -33 -14 -95 -33 -137 -41 -43 -9 -94 -27 -114 -41
-20 -13 -57 -28 -81 -32 -25 -5 -76 -25 -114 -45 -38 -20 -74 -37 -79 -37 -6
0 -38 -17 -71 -38 -34 -20 -73 -44 -87 -52 -195 -111 -402 -310 -479 -461 -10
-19 -25 -41 -34 -48 -8 -7 -22 -36 -32 -64 -9 -29 -27 -71 -40 -94 -48 -84
-70 -387 -38 -540 18 -89 71 -188 145 -274 39 -46 72 -69 155 -113 58 -31 124
-61 147 -66 153 -37 485 -23 556 23 20 13 63 34 95 47 47 19 79 43 153 118 51
51 93 98 93 104 0 6 19 52 43 102 l42 91 -3 280 c-3 324 6 432 46 503 15 26
34 67 42 92 38 109 173 265 273 316 18 9 50 29 72 44 25 18 69 34 115 44 41 8
107 22 145 30 114 25 236 21 380 -14 69 -16 130 -30 137 -30 6 0 39 -17 72
-38 34 -20 73 -44 87 -52 107 -61 216 -159 241 -217 7 -15 24 -42 39 -59 15
-18 35 -54 45 -80 10 -27 29 -64 41 -83 12 -18 25 -49 29 -70 10 -59 31 -152
50 -221 28 -105 24 -344 -9 -480 -14 -58 -28 -126 -32 -152 -3 -26 -17 -62
-30 -81 -12 -19 -37 -65 -55 -101 -23 -50 -55 -90 -131 -166 -55 -55 -119
-110 -142 -121 -23 -12 -55 -31 -72 -44 -16 -12 -46 -27 -66 -34 -20 -6 -57
-25 -82 -41 -26 -16 -73 -37 -104 -46 -32 -9 -76 -27 -98 -40 -22 -12 -69 -30
-105 -39 -36 -9 -90 -27 -121 -41 -31 -13 -90 -31 -130 -40 -41 -9 -101 -29
-134 -44 -33 -15 -78 -30 -100 -33 -22 -4 -67 -20 -100 -37 -33 -16 -91 -37
-130 -45 -38 -9 -100 -29 -136 -45 -36 -17 -86 -34 -111 -38 -25 -5 -68 -21
-94 -36 -27 -15 -76 -34 -109 -41 -34 -8 -85 -28 -115 -45 -30 -16 -64 -30
-74 -30 -11 0 -52 -18 -92 -40 -40 -22 -78 -40 -84 -40 -6 0 -42 -18 -79 -40
-37 -22 -72 -40 -79 -40 -6 0 -41 -20 -78 -45 -36 -25 -71 -45 -78 -45 -8 0
-20 -7 -27 -17 -8 -9 -35 -30 -60 -47 -126 -84 -314 -258 -364 -336 -16 -25
-42 -60 -59 -77 -34 -37 -74 -103 -111 -183 -14 -30 -38 -80 -54 -110 -16 -30
-32 -73 -36 -95 -4 -22 -17 -72 -30 -111 -33 -99 -44 -173 -51 -359 -9 -225 7
-397 46 -500 16 -44 33 -96 36 -115 5 -28 62 -162 93 -217 71 -127 253 -326
346 -378 35 -20 68 -42 75 -50 17 -20 186 -102 240 -115 25 -6 72 -24 105 -39
38 -18 86 -31 130 -36 39 -4 114 -15 167 -26 136 -26 363 -43 488 -35 144 9
544 78 604 105 27 12 77 28 110 37 34 8 86 28 116 43 30 16 69 32 85 35 17 4
50 20 75 36 25 16 59 34 75 40 17 6 57 28 90 48 33 21 72 44 86 52 57 33 151
106 279 218 69 60 153 160 182 216 23 44 42 58 75 54 37 -4 78 -78 93 -170 7
-40 23 -84 40 -111 15 -24 31 -55 35 -68 11 -35 100 -155 164 -222 62 -64 200
-145 296 -173 32 -9 81 -26 109 -39 64 -28 216 -45 400 -44 216 0 330 13 431
47 50 16 116 35 147 41 31 7 74 24 94 37 20 14 59 34 85 45 76 29 166 96 261
192 136 138 172 207 189 365 11 105 11 113 -6 132 -33 36 -72 23 -122 -40
-114 -143 -142 -174 -198 -213 -49 -34 -70 -42 -117 -45 -49 -4 -64 0 -111 27
-59 34 -135 109 -161 160 -27 51 -82 202 -91 246 -4 22 -11 823 -15 1780 -7
1735 -8 1740 -29 1825 -12 47 -31 132 -42 190 -12 60 -31 122 -45 146 -13 22
-31 64 -39 91 -8 28 -22 56 -31 64 -8 7 -27 36 -41 63 -47 92 -116 180 -233
294 -121 120 -187 171 -285 223 -33 17 -73 42 -88 55 -16 13 -37 24 -47 24
-26 0 -69 20 -102 46 -15 12 -51 27 -80 34 -29 7 -82 26 -117 42 -36 16 -92
34 -125 39 -34 6 -117 23 -186 39 -152 36 -292 50 -555 56 -110 2 -225 6 -255
7 -30 1 -80 1 -110 0z m905 -2467 c14 -21 16 -120 15 -908 0 -485 -5 -934 -10
-997 -8 -96 -14 -122 -40 -172 -16 -32 -35 -81 -41 -108 -6 -28 -21 -65 -35
-83 -25 -35 -34 -51 -58 -108 -36 -83 -162 -238 -255 -313 -35 -29 -85 -71
-111 -93 -27 -23 -66 -48 -87 -54 -21 -7 -51 -23 -66 -36 -15 -13 -47 -28 -70
-34 -23 -6 -69 -21 -102 -32 -134 -46 -155 -49 -310 -45 -157 4 -147 1 -327
69 -195 74 -378 301 -443 548 -12 47 -30 114 -40 149 -14 54 -16 95 -12 255 3
136 9 207 21 246 9 30 25 97 36 148 10 52 29 110 41 130 11 20 30 65 40 99 11
34 24 65 29 68 6 4 22 29 36 56 13 27 40 66 58 87 18 20 46 57 61 82 53 86
319 330 429 395 97 57 118 70 150 92 17 13 57 36 90 52 32 16 68 38 80 49 11
10 43 27 69 36 26 10 60 28 75 41 15 12 43 27 63 34 20 6 56 24 80 39 24 16
71 41 104 56 33 15 66 33 75 40 8 7 31 19 50 26 19 8 62 31 96 52 34 21 66 38
72 38 6 0 25 12 43 27 51 43 132 91 156 92 14 1 29 -9 38 -23z"/>
<path d="M31155 8719 c-129 -8 -248 -23 -315 -39 -19 -5 -62 -15 -95 -24 -33
-8 -91 -19 -128 -26 -38 -6 -102 -24 -142 -40 -40 -16 -97 -32 -127 -36 -29
-4 -82 -21 -118 -39 -36 -19 -84 -36 -107 -40 -24 -4 -60 -18 -80 -32 -21 -15
-65 -39 -99 -54 -33 -15 -66 -35 -73 -43 -8 -9 -19 -16 -25 -16 -12 0 -130
-77 -205 -132 -89 -67 -187 -159 -234 -220 -95 -124 -127 -170 -127 -182 0 -7
-13 -33 -30 -59 -16 -25 -40 -90 -55 -144 -14 -54 -32 -123 -41 -153 -25 -89
-13 -231 30 -354 70 -198 154 -294 326 -378 123 -59 181 -70 360 -69 199 1
257 12 366 68 167 85 291 230 322 377 12 55 16 146 17 396 l1 325 33 100 c49
145 98 228 190 321 86 86 208 163 302 188 30 8 81 23 114 32 80 22 275 22 370
0 39 -9 104 -24 145 -32 51 -11 109 -35 180 -73 87 -46 121 -72 200 -151 90
-90 108 -116 192 -273 9 -18 20 -49 23 -71 4 -21 20 -79 36 -128 55 -169 57
-503 5 -663 -15 -44 -33 -105 -40 -136 -13 -54 -79 -175 -135 -248 -49 -64
-156 -163 -201 -186 -25 -13 -61 -35 -80 -49 -19 -15 -52 -31 -73 -37 -21 -6
-60 -23 -85 -39 -26 -16 -69 -34 -97 -41 -27 -6 -72 -24 -100 -40 -27 -15 -87
-37 -133 -48 -45 -12 -99 -30 -120 -41 -21 -11 -65 -25 -98 -31 -32 -6 -93
-26 -135 -45 -42 -19 -85 -34 -95 -34 -28 0 -105 -25 -151 -49 -22 -11 -71
-27 -109 -36 -38 -9 -90 -27 -117 -41 -26 -13 -78 -31 -115 -40 -37 -8 -86
-26 -109 -40 -22 -13 -65 -30 -95 -38 -29 -8 -80 -29 -112 -45 -32 -17 -66
-31 -75 -31 -9 0 -45 -18 -81 -40 -36 -22 -74 -40 -85 -40 -10 0 -44 -17 -75
-39 -30 -21 -71 -44 -91 -50 -20 -6 -45 -21 -55 -32 -11 -12 -40 -32 -65 -44
-25 -13 -51 -31 -59 -40 -7 -9 -27 -23 -44 -32 -69 -35 -288 -230 -347 -308
-20 -27 -56 -72 -78 -100 -22 -27 -52 -72 -67 -100 -15 -27 -37 -63 -49 -80
-12 -16 -28 -48 -35 -70 -7 -22 -22 -58 -35 -80 -12 -22 -30 -80 -39 -130 -10
-49 -27 -119 -38 -155 -16 -51 -21 -104 -25 -245 l-6 -181 43 -194 c27 -129
50 -210 67 -238 13 -24 33 -67 43 -96 10 -29 32 -73 50 -97 17 -24 48 -70 68
-101 60 -92 199 -228 312 -305 25 -17 53 -40 64 -52 10 -11 35 -23 55 -27 20
-3 61 -21 91 -39 30 -18 73 -36 95 -39 22 -4 68 -21 102 -37 35 -17 93 -35
130 -40 38 -5 138 -21 223 -36 218 -38 434 -38 635 0 77 14 163 29 190 33 58
8 150 36 195 59 17 9 55 20 84 25 29 5 74 22 101 39 27 17 60 31 74 31 15 0
49 14 76 30 28 16 68 38 90 48 55 27 262 167 305 207 19 18 73 68 119 112 72
68 163 172 224 258 21 29 57 33 79 8 20 -23 68 -156 68 -188 0 -29 16 -69 45
-110 11 -16 29 -52 41 -80 26 -65 99 -160 168 -219 70 -59 193 -128 271 -151
33 -9 65 -20 70 -25 102 -78 734 -75 940 5 33 13 84 28 113 34 29 6 69 22 90
36 20 13 57 31 82 40 24 9 54 24 65 34 11 10 40 31 65 46 61 38 171 146 230
225 57 77 90 186 90 297 0 83 -21 116 -73 111 -24 -2 -40 -16 -79 -68 -94
-125 -131 -165 -191 -208 -56 -39 -65 -42 -126 -42 -42 0 -80 7 -106 19 -49
22 -172 151 -181 188 -4 16 -18 55 -32 88 -14 33 -30 78 -35 100 -6 25 -12
688 -16 1810 l-7 1770 -23 80 c-22 76 -30 114 -51 231 -5 28 -20 68 -35 89
-14 21 -32 62 -41 91 -8 29 -22 58 -30 65 -9 7 -27 35 -40 61 -67 132 -298
376 -415 439 -13 7 -45 29 -71 50 -27 21 -58 41 -71 45 -12 4 -35 17 -52 29
-16 12 -48 28 -70 35 -22 7 -73 30 -113 52 -40 21 -81 38 -91 38 -10 0 -44 11
-75 25 -31 14 -107 36 -169 50 -62 13 -143 34 -182 45 -134 40 -766 62 -1140
39z m1185 -2459 c20 -20 20 -33 20 -822 0 -949 -10 -1107 -75 -1238 -13 -25
-30 -69 -39 -99 -8 -29 -31 -82 -51 -116 -19 -35 -35 -69 -35 -77 0 -29 -102
-168 -187 -254 -115 -118 -254 -223 -294 -224 -8 0 -38 -16 -65 -35 -27 -19
-65 -38 -84 -41 -19 -3 -75 -19 -123 -35 -79 -27 -102 -30 -225 -31 -125 -2
-145 1 -222 26 -150 49 -168 57 -206 87 -20 16 -43 29 -50 29 -23 0 -133 110
-177 178 -95 147 -142 271 -184 492 -20 104 -12 329 15 430 12 41 25 110 31
153 10 73 28 123 56 157 6 8 20 40 29 70 10 30 26 66 36 80 9 14 26 45 37 70
31 68 241 306 335 379 25 20 79 63 119 96 70 57 93 74 168 120 18 11 67 41
109 68 42 26 80 47 86 47 5 0 23 11 41 24 18 14 60 38 95 55 35 17 70 37 79
45 9 7 39 21 66 32 28 10 64 28 80 40 17 12 55 32 85 44 30 12 64 30 75 40 11
10 45 28 75 41 30 13 66 30 80 39 14 9 50 32 80 50 30 18 79 48 109 67 63 38
83 41 111 13z"/>
<path d="M18025 8699 c-91 -4 -158 -14 -225 -32 -52 -14 -122 -29 -155 -32
-35 -4 -89 -21 -130 -40 -38 -19 -90 -39 -114 -46 -24 -7 -53 -21 -66 -31 -12
-9 -47 -27 -78 -38 -30 -11 -61 -28 -68 -36 -7 -9 -31 -25 -53 -36 -46 -24
-96 -64 -247 -201 -183 -166 -327 -348 -406 -515 -27 -55 -60 -75 -92 -55 -14
9 -16 57 -18 427 -1 451 -6 501 -50 536 -35 27 -69 25 -146 -10 -37 -16 -78
-30 -91 -30 -14 0 -53 -15 -88 -33 -35 -18 -93 -39 -128 -46 -36 -8 -91 -26
-124 -42 -32 -16 -95 -36 -139 -44 -44 -8 -94 -22 -111 -31 -42 -22 -77 -32
-166 -49 -42 -8 -116 -28 -165 -44 -50 -16 -119 -32 -155 -35 -35 -4 -129 -23
-209 -42 -104 -25 -184 -37 -282 -43 -75 -5 -146 -14 -157 -20 -31 -16 -62
-74 -62 -114 0 -57 32 -85 122 -108 205 -52 310 -137 399 -324 28 -58 55 -129
61 -158 16 -77 24 -3618 8 -3787 -8 -92 -18 -141 -36 -185 -14 -33 -32 -79
-39 -102 -8 -23 -19 -52 -26 -65 -28 -53 -119 -143 -194 -193 -75 -49 -87 -54
-189 -70 -91 -15 -115 -23 -140 -46 -28 -24 -31 -33 -31 -84 0 -104 -158 -94
1446 -92 l1401 2 19 24 c27 34 26 103 -3 134 -21 23 -92 45 -236 72 -17 4 -54
22 -82 41 -27 19 -55 34 -61 34 -19 0 -146 130 -160 163 -8 18 -28 54 -45 80
-18 27 -37 73 -43 107 -7 32 -23 92 -38 132 -25 71 -26 83 -34 403 -11 505
-11 2331 1 2460 6 61 24 175 40 255 16 80 32 168 36 195 4 28 19 84 35 125 15
41 35 104 44 139 9 36 29 90 44 120 16 31 32 70 35 88 4 17 21 51 38 74 17 23
35 57 40 75 5 19 19 46 32 61 13 15 41 54 63 86 63 92 181 223 247 275 74 58
206 142 223 142 7 0 42 16 79 35 148 79 284 26 284 -109 0 -19 -6 -65 -14
-103 -20 -98 -29 -309 -18 -441 8 -94 14 -119 35 -150 14 -20 32 -60 41 -88 9
-29 38 -78 64 -110 127 -159 230 -217 456 -260 162 -30 151 -30 381 11 131 23
235 78 346 183 57 54 93 97 103 123 9 23 28 56 41 74 14 17 34 56 44 86 11 30
29 74 41 97 12 24 25 67 30 95 17 106 22 302 10 407 -10 92 -17 116 -57 200
-64 131 -117 206 -193 276 -85 78 -124 106 -196 142 -32 16 -73 37 -90 46 -17
9 -62 23 -100 32 -38 8 -114 26 -169 39 -118 28 -194 33 -370 24z"/>
<path d="M23125 8704 c-71 -8 -174 -27 -220 -40 -28 -8 -87 -21 -132 -28 -45
-8 -105 -27 -134 -41 -28 -15 -77 -33 -108 -41 -30 -8 -75 -28 -100 -44 -24
-17 -48 -30 -53 -30 -5 0 -32 -15 -61 -33 -29 -18 -66 -40 -82 -48 -88 -44
-346 -284 -425 -398 -25 -35 -59 -83 -77 -107 -18 -23 -41 -61 -53 -83 -21
-42 -45 -61 -79 -61 -43 0 -47 25 -45 257 3 255 -10 524 -26 571 -23 62 -70
67 -168 18 -37 -18 -97 -43 -134 -54 -37 -12 -80 -28 -96 -36 -16 -8 -64 -24
-108 -35 -44 -11 -100 -29 -125 -40 -24 -11 -78 -27 -119 -36 -41 -9 -101 -27
-132 -41 -32 -14 -90 -31 -130 -39 -40 -7 -109 -27 -153 -43 -44 -16 -111 -33
-150 -36 -38 -4 -108 -19 -155 -33 -86 -26 -111 -30 -350 -59 -163 -20 -250
-56 -250 -105 0 -22 87 -98 120 -105 69 -14 102 -27 127 -48 16 -13 44 -30 63
-39 44 -18 126 -90 145 -126 7 -15 29 -46 48 -69 22 -26 40 -61 47 -94 7 -29
24 -86 37 -127 21 -63 26 -102 33 -280 12 -297 12 -5745 0 -5906 -8 -107 -15
-142 -39 -200 -16 -38 -32 -91 -35 -117 -4 -26 -17 -62 -29 -80 -13 -18 -35
-58 -50 -89 -31 -65 -145 -173 -223 -212 -27 -13 -63 -32 -80 -41 -35 -18
-119 -36 -170 -36 -20 0 -43 -9 -61 -24 -24 -21 -27 -30 -27 -82 1 -50 5 -61
28 -81 27 -23 31 -23 159 -17 171 8 2473 6 2553 -2 43 -4 78 -1 117 10 47 14
57 21 72 52 16 34 16 39 1 71 -19 40 -55 58 -152 73 -130 21 -355 162 -382
239 -6 16 -26 52 -45 80 -20 28 -39 66 -42 83 -4 18 -20 58 -35 88 -61 122
-88 568 -89 1450 -1 311 -4 1200 -7 1975 -4 962 -3 1486 5 1650 15 342 50 645
91 794 11 41 26 111 34 156 8 46 26 106 40 134 15 28 31 74 37 103 6 29 28 89
49 133 21 44 48 100 59 125 121 253 307 457 488 534 195 82 180 78 307 83 67
3 172 0 233 -5 100 -9 120 -14 175 -45 35 -19 75 -37 90 -41 15 -3 42 -19 60
-35 18 -15 52 -38 75 -49 51 -27 214 -184 238 -232 10 -19 29 -48 42 -65 43
-54 93 -129 112 -170 10 -22 32 -62 50 -89 17 -28 31 -58 31 -67 0 -10 16 -48
36 -86 19 -37 42 -97 50 -133 8 -36 26 -90 41 -120 14 -30 30 -84 35 -120 6
-36 23 -107 39 -158 18 -59 35 -145 45 -234 8 -78 17 -145 19 -148 2 -4 14
-81 27 -171 40 -295 27 -1014 -22 -1179 -6 -19 -17 -96 -25 -170 -9 -86 -24
-162 -40 -210 -14 -41 -30 -110 -36 -153 -6 -46 -24 -113 -43 -160 -19 -45
-37 -101 -41 -124 -3 -23 -20 -62 -36 -88 -16 -26 -36 -70 -43 -98 -8 -29 -30
-79 -50 -111 -20 -33 -36 -67 -36 -75 0 -25 -95 -161 -190 -273 -81 -95 -303
-274 -368 -296 -19 -6 -47 -23 -63 -36 -17 -14 -51 -32 -78 -40 -26 -7 -75
-28 -108 -44 -40 -21 -87 -34 -139 -41 -44 -6 -119 -19 -169 -30 -49 -12 -111
-21 -136 -21 -59 0 -135 -26 -154 -53 -24 -35 -19 -82 11 -106 41 -33 85 -40
289 -47 168 -5 216 -3 420 20 127 15 253 34 280 42 28 9 100 28 160 44 123 32
322 101 358 124 13 9 50 25 82 36 33 11 76 31 95 44 19 13 51 29 70 36 19 7
79 43 133 79 54 36 115 75 136 86 46 24 97 63 170 131 31 28 88 76 126 106
127 101 330 332 458 523 112 168 155 240 197 335 11 25 36 77 55 115 19 39 40
90 46 115 6 25 22 63 35 85 13 22 30 71 39 109 9 38 27 91 41 117 13 27 29 81
34 121 6 40 21 107 35 148 54 169 79 427 79 840 1 346 -24 642 -64 755 -12 33
-30 103 -41 155 -10 52 -30 120 -44 151 -14 31 -29 79 -34 105 -12 62 -19 81
-47 124 -13 19 -33 62 -44 94 -11 33 -27 67 -35 76 -8 9 -24 38 -36 65 -12 28
-31 64 -43 80 -13 17 -26 39 -30 49 -6 18 -22 41 -137 200 -126 176 -320 355
-519 481 -47 30 -97 63 -111 74 -14 11 -50 29 -79 40 -29 11 -62 29 -74 39
-12 11 -39 25 -61 32 -22 7 -74 27 -115 45 -41 18 -109 38 -150 45 -41 7 -93
19 -115 27 -88 32 -206 43 -450 41 -132 0 -253 -3 -270 -4z"/>
<path d="M38750 8703 c-19 -2 -87 -14 -150 -28 -63 -14 -160 -32 -215 -40 -62
-10 -123 -27 -160 -44 -33 -16 -83 -36 -112 -44 -28 -9 -69 -25 -90 -36 -21
-12 -63 -33 -93 -46 -30 -14 -89 -45 -130 -70 -41 -24 -93 -54 -115 -66 -22
-12 -71 -50 -110 -84 -38 -34 -98 -85 -131 -112 -77 -61 -224 -230 -311 -356
-12 -18 -32 -45 -45 -62 -14 -16 -34 -47 -47 -67 -28 -47 -62 -51 -88 -11 -17
25 -18 63 -18 464 0 428 0 438 -21 466 -12 16 -36 32 -57 37 -31 8 -46 5 -104
-22 -37 -17 -90 -36 -116 -42 -27 -6 -70 -21 -95 -34 -26 -13 -69 -28 -97 -35
-27 -7 -78 -23 -113 -37 -35 -14 -96 -32 -136 -39 -40 -8 -104 -26 -142 -40
-38 -15 -94 -31 -124 -37 -58 -10 -195 -48 -245 -68 -16 -6 -66 -16 -110 -21
-44 -5 -105 -18 -135 -29 -52 -19 -155 -35 -395 -61 -60 -6 -122 -17 -137 -25
-60 -31 -86 -103 -54 -150 16 -23 64 -44 151 -67 150 -40 166 -49 253 -131 68
-66 91 -96 129 -170 75 -150 73 -88 83 -1886 9 -1606 8 -1822 -11 -2060 -13
-172 -23 -220 -52 -263 -13 -19 -31 -59 -41 -89 -13 -43 -32 -70 -85 -124
-111 -113 -130 -125 -245 -150 -118 -26 -210 -64 -225 -92 -17 -31 -13 -77 8
-103 l19 -24 1402 0 c1376 0 1402 0 1416 19 20 28 18 99 -4 119 -24 22 -134
63 -222 83 -39 9 -83 26 -98 38 -15 13 -45 33 -68 44 -98 50 -193 202 -270
432 l-38 115 -4 1292 c-4 1355 1 1563 37 1702 11 40 27 119 36 175 10 55 30
130 45 166 16 36 36 94 45 130 9 36 26 81 37 100 11 19 29 60 39 90 11 30 28
64 39 75 11 12 33 48 50 81 41 79 106 161 215 269 88 87 232 195 260 195 8 0
49 15 92 34 88 39 159 53 313 62 160 9 365 -24 437 -71 12 -8 44 -22 70 -31
26 -9 64 -29 83 -44 19 -15 49 -35 67 -44 18 -9 40 -28 50 -42 10 -14 35 -46
56 -70 20 -25 37 -49 37 -54 0 -5 18 -29 40 -55 22 -25 44 -62 50 -83 5 -20
23 -64 40 -96 16 -32 30 -66 30 -75 0 -9 13 -70 29 -136 16 -66 34 -169 40
-230 15 -152 16 -3323 1 -3415 -6 -36 -22 -97 -36 -136 -13 -39 -24 -78 -24
-88 0 -79 -235 -326 -310 -326 -16 0 -60 -11 -98 -25 -38 -14 -81 -25 -96 -25
-14 0 -40 -13 -58 -29 -40 -36 -43 -89 -7 -127 l23 -25 1361 1 c924 1 1374 5
1403 12 67 17 94 84 50 125 -22 20 -197 85 -268 99 -85 16 -277 175 -321 266
-64 129 -91 199 -99 261 -6 39 -17 93 -25 121 -13 44 -15 286 -19 1691 -5
1952 -4 1928 -97 2217 -11 32 -19 67 -19 79 0 12 -13 43 -30 69 -16 26 -36 67
-43 91 -13 41 -45 97 -129 223 -45 67 -188 216 -273 285 -109 87 -126 99 -190
130 -33 16 -68 38 -78 49 -10 11 -34 23 -54 27 -20 3 -64 20 -98 36 -34 16
-91 36 -126 44 -35 8 -113 25 -174 39 -170 39 -436 56 -605 39z"/>
<path d="M27830 8581 c-19 -10 -62 -23 -95 -31 -33 -7 -81 -23 -106 -36 -26
-13 -80 -31 -120 -40 -41 -9 -94 -27 -119 -40 -25 -13 -81 -30 -125 -39 -44
-9 -86 -20 -95 -25 -36 -19 -138 -50 -184 -56 -28 -4 -78 -17 -111 -30 -33
-12 -125 -37 -205 -54 -80 -17 -178 -39 -218 -50 -40 -11 -118 -24 -174 -30
-55 -5 -157 -21 -226 -35 -69 -14 -136 -25 -149 -25 -59 0 -84 -84 -40 -135
16 -20 42 -30 102 -44 44 -10 102 -28 129 -39 27 -12 57 -22 66 -22 26 0 140
-100 190 -166 22 -30 59 -100 81 -156 35 -88 42 -117 50 -222 6 -74 8 -822 6
-1906 -3 -1954 1 -1821 -61 -1965 -14 -33 -26 -66 -26 -74 0 -21 -77 -139
-119 -184 -69 -74 -161 -131 -263 -165 -53 -18 -104 -32 -112 -32 -28 0 -64
-30 -75 -62 -16 -45 -14 -64 12 -93 l22 -26 445 1 c245 1 864 3 1375 4 512 2
942 3 957 4 57 4 88 79 53 129 -16 22 -156 73 -270 97 -60 13 -120 49 -208
126 -47 41 -137 166 -137 190 0 9 -18 52 -39 96 -34 68 -41 94 -51 189 -11
106 -26 2093 -30 4080 -2 857 -1 833 -52 869 -28 20 -34 19 -78 -3z"/>
<path d="M7111 7397 c-27 -23 -75 -62 -106 -87 -32 -25 -74 -59 -94 -76 -57
-50 -251 -194 -260 -194 -5 0 -30 -17 -57 -39 -27 -21 -87 -60 -134 -87 -47
-26 -98 -59 -114 -72 -16 -13 -54 -37 -85 -53 -69 -36 -111 -62 -176 -105 -27
-18 -63 -38 -80 -44 -16 -6 -54 -26 -85 -44 -30 -19 -69 -37 -86 -40 -18 -4
-57 -30 -89 -61 -56 -51 -58 -55 -52 -93 12 -69 8 -2669 -3 -2767 -14 -115
-17 -129 -50 -195 -15 -30 -31 -69 -34 -87 -9 -38 -89 -142 -153 -198 -83 -72
-180 -124 -230 -125 -18 0 -66 -14 -108 -30 -42 -17 -84 -30 -95 -30 -51 0
-81 -109 -40 -150 20 -20 33 -20 1463 -20 894 0 1455 4 1476 10 41 11 60 35
61 76 0 57 -68 97 -225 134 -82 19 -115 33 -180 75 -90 57 -206 183 -226 243
-6 19 -24 59 -40 89 -16 30 -29 63 -29 72 0 10 -9 51 -19 92 -30 118 -41 722
-42 2366 -1 1064 -4 1455 -13 1461 -31 24 -47 20 -95 -21z"/>
<path d="M971 6542 c-7 -12 -10 -515 -11 -1410 0 -765 -3 -1406 -6 -1424 -3
-18 -19 -71 -35 -118 -15 -47 -33 -106 -38 -131 -15 -69 -86 -186 -155 -257
-73 -75 -193 -146 -291 -172 -137 -37 -179 -54 -216 -91 -26 -26 -24 -72 5
-106 l24 -28 1469 0 c1363 0 1471 1 1495 17 32 21 43 60 26 96 -17 36 -100 76
-222 107 -57 14 -119 38 -145 54 -25 16 -60 35 -76 43 -82 35 -223 243 -244
358 -7 36 -22 90 -33 120 -30 79 -39 400 -36 1210 3 640 3 656 24 690 18 31
26 36 75 42 29 5 113 19 184 32 72 14 159 28 195 31 85 9 181 29 251 53 30 11
79 23 109 27 30 4 79 16 110 27 30 11 87 29 125 40 39 12 108 36 155 54 47 18
102 37 123 42 20 6 51 22 67 36 18 15 54 30 90 37 67 13 90 30 70 54 -19 23
-131 19 -210 -6 -58 -19 -94 -22 -340 -26 -211 -4 -310 -1 -425 11 -82 9 -240
25 -350 36 -114 11 -242 30 -295 44 -52 13 -142 31 -200 40 -58 10 -134 28
-170 41 -36 13 -108 33 -160 45 -52 12 -103 28 -115 35 -11 8 -45 21 -75 30
-108 32 -125 38 -150 55 -14 10 -52 25 -85 35 -32 9 -70 25 -82 35 -13 10 -55
31 -93 45 -39 15 -72 31 -76 36 -3 5 -29 21 -57 35 -29 15 -71 42 -94 60 -47
39 -96 46 -112 16z"/>
</g>
</svg>
